<?xml version="1.0" standalone="no"?>
<!DOCTYPE svg PUBLIC "-//W3C//DTD SVG 20010904//EN"
 "http://www.w3.org/TR/2001/REC-SVG-20010904/DTD/svg10.dtd">
<svg version="1.0" xmlns="http://www.w3.org/2000/svg"
 width="476.000000pt" height="476.000000pt" viewBox="0 0 476.000000 476.000000"
 preserveAspectRatio="xMidYMid meet">
<metadata>
Created by potrace 1.14, written by Peter Selinger 2001-2017
</metadata>
<g transform="translate(0.000000,476.000000) scale(0.100000,-0.100000)"
fill="#000000" stroke="none">
<path d="M1968 4415 c-2 -2 -57 -6 -123 -10 -66 -4 -140 -8 -165 -10 -25 -1
-90 -6 -145 -9 -55 -4 -131 -9 -170 -11 -38 -3 -110 -7 -160 -10 -49 -3 -121
-7 -160 -10 -38 -3 -106 -7 -150 -10 -44 -2 -114 -7 -155 -10 -41 -3 -115 -7
-165 -10 -428 -23 -434 -24 -504 -94 -66 -66 -72 -104 -57 -356 10 -163 16
-259 21 -335 8 -123 14 -220 20 -315 3 -49 7 -123 10 -162 7 -102 14 -214 20
-313 3 -47 7 -121 10 -165 3 -44 7 -114 10 -155 3 -41 7 -109 10 -150 2 -41 7
-120 10 -175 3 -55 8 -127 10 -160 11 -150 21 -313 30 -480 10 -190 25 -243
82 -297 35 -33 117 -65 163 -62 151 8 266 14 325 19 148 12 230 13 254 3 25
-9 91 -24 156 -34 17 -3 75 -14 130 -24 111 -22 104 -20 300 -55 138 -25 166
-30 215 -40 14 -2 39 -7 55 -10 218 -36 249 -45 395 -112 41 -19 122 -55 180
-80 58 -25 143 -63 188 -84 46 -22 85 -39 87 -39 2 0 32 -13 67 -29 35 -16 97
-43 138 -61 41 -17 98 -42 125 -55 28 -13 93 -42 145 -65 52 -23 109 -48 125
-56 97 -45 157 -49 236 -16 50 20 88 86 208 356 66 149 132 298 147 331 15 33
28 62 29 65 0 3 8 21 17 40 9 19 53 116 96 216 44 99 89 200 100 225 12 24 85
188 162 364 78 176 152 343 165 370 12 28 46 104 75 170 29 66 64 145 77 175
14 30 33 73 43 95 10 22 29 65 42 95 58 131 63 144 61 197 -2 72 -37 132 -103
172 -28 17 -52 31 -55 31 -3 0 -152 66 -332 146 -181 81 -362 161 -403 179
-221 96 -225 98 -228 139 -5 73 -60 149 -129 179 -35 15 -249 58 -463 93 -14
2 -45 9 -70 14 -40 9 -575 106 -624 114 -11 1 -20 9 -21 17 -1 8 -5 38 -9 68
-8 64 -24 96 -63 132 -54 51 -91 63 -190 65 -51 1 -94 0 -95 -1z"/>
</g>
</svg>
